# xmcd
#
# Track frame offsets:
#	150
#	16935
#	42194
#	65461
#	86074
#	108234
#	125332
#	153407
#	170238
#	191432
#	203719
#	220230
#	233784
#	245226
#	258895
#	273774
#
# Disc length: 3795 seconds
#
# Revision: 0
# Processed by: cddbd v1.5PL3 Copyright (c) Steve Scherf et al.
# Submitted via: dBpowerAMP V4.0
#
DISCID=dc0ed110
DTITLE=beatles - ever green
DYEAR=1900
DGENRE=
TTITLE0=a
TTITLE1=s
TTITLE2=w
TTITLE3=e
TTITLE4=we
TTITLE5=rt
TTITLE6=ty
TTITLE7=edtr
TTITLE8=fgdh
TTITLE9=sdfg
TTITLE10=desz
TTITLE11=loki
TTITLE12=sdew
TTITLE13=asde
TTITLE14=uiop
TTITLE15=erty
EXTD=
EXTT0=
EXTT1=
EXTT2=
EXTT3=
EXTT4=
EXTT5=
EXTT6=
EXTT7=
EXTT8=
EXTT9=
EXTT10=
EXTT11=
EXTT12=
EXTT13=
EXTT14=
EXTT15=
PLAYORDER=
